<svg height='100px' width='100px'  fill="#a6cd12" xmlns="http://www.w3.org/2000/svg" xmlns:xlink="http://www.w3.org/1999/xlink" version="1.1" x="0px" y="0px" viewBox="0 0 69 69" style="enable-background:new 0 0 69 69;" xml:space="preserve"><g><path d="M13.38353,22.94267c-2.30005,0-4.16003,1.87-4.16003,4.16998c0,2.28998,1.85999,4.16003,4.16003,4.16003   c2.28998,0,4.15997-1.87006,4.15997-4.16003C17.5435,24.81267,15.67351,22.94267,13.38353,22.94267z M13.38353,29.77269   c-1.47003,0-2.66003-1.20001-2.66003-2.66003c0-1.46997,1.19-2.66998,2.66003-2.66998c1.46997,0,2.65997,1.20001,2.65997,2.66998   C16.0435,28.57268,14.8535,29.77269,13.38353,29.77269z"></path><path d="M19.48924,25.87151h20.14063c0.41406,0,0.75-0.33594,0.75-0.75s-0.33594-0.75-0.75-0.75H19.48924   c-0.41406,0-0.75,0.33594-0.75,0.75S19.07518,25.87151,19.48924,25.87151z"></path><path d="M19.48924,29.84514h8.97949c0.41406,0,0.75-0.33594,0.75-0.75s-0.33594-0.75-0.75-0.75h-8.97949   c-0.41406,0-0.75,0.33594-0.75,0.75S19.07518,29.84514,19.48924,29.84514z"></path><path d="M13.38353,35.62267c-2.30005,0-4.16003,1.85999-4.16003,4.15997c0,2.29004,1.85999,4.16003,4.16003,4.16003   c2.28998,0,4.15997-1.87,4.15997-4.16003C17.5435,37.48265,15.67351,35.62267,13.38353,35.62267z M13.38353,42.44268   c-1.47003,0-2.66003-1.19-2.66003-2.66003c0-1.46997,1.19-2.65997,2.66003-2.65997c1.46997,0,2.65997,1.19,2.65997,2.65997   C16.0435,41.25267,14.8535,42.44268,13.38353,42.44268z"></path><path d="M19.48924,38.54436h20.14063c0.41406,0,0.75-0.33594,0.75-0.75s-0.33594-0.75-0.75-0.75H19.48924   c-0.41406,0-0.75,0.33594-0.75,0.75S19.07518,38.54436,19.48924,38.54436z"></path><path d="M19.48924,42.51799h8.97949c0.41406,0,0.75-0.33594,0.75-0.75s-0.33594-0.75-0.75-0.75h-8.97949   c-0.41406,0-0.75,0.33594-0.75,0.75S19.07518,42.51799,19.48924,42.51799z"></path><path d="M13.38353,48.29265c-2.30005,0-4.16003,1.87-4.16003,4.16003c0,2.29999,1.85999,4.15997,4.16003,4.15997   c2.28998,0,4.15997-1.85999,4.15997-4.15997C17.5435,50.16265,15.67351,48.29265,13.38353,48.29265z M13.38353,55.11266   c-1.47003,0-2.66003-1.19-2.66003-2.65997c0-1.47003,1.19-2.66003,2.66003-2.66003c1.46997,0,2.65997,1.19,2.65997,2.66003   C16.0435,53.92266,14.8535,55.11266,13.38353,55.11266z"></path><path d="M19.48924,55.19085h8.97949c0.41406,0,0.75-0.33594,0.75-0.75s-0.33594-0.75-0.75-0.75h-8.97949   c-0.41406,0-0.75,0.33594-0.75,0.75S19.07518,55.19085,19.48924,55.19085z"></path><path d="M16.66448,9.08806C16.67571,9.06035,16.67699,9.05705,16.66448,9.08806L16.66448,9.08806z"></path><path d="M53.49352,43.93267c-0.0014,0.00006-0.00281-0.00006-0.00421,0c-0.26422-0.28766-0.49274-0.5741-0.68811-0.8595   c2.94971,0.43176,6.44-1.38422,7.63232-4.80048c0.06-0.19,0.04999-0.39001-0.04004-0.57001   c-0.07996-0.17999-0.23999-0.32001-0.41998-0.38c-1.83002-0.64001-3.78998-0.53003-5.52997,0.32001   c-0.84497,0.40277-1.5918,0.96167-2.20569,1.64496c0.25623-0.69153,0.68231-1.39343,1.3266-2.11731   c0.27539-0.30957,0.24707-0.78418-0.06152-1.05957c-0.31055-0.27344-0.7832-0.24805-1.05957,0.06152   c-2.27283,2.55499-2.58228,5.17822-0.93854,7.66052c-1.49731-0.24573-1.78705-0.47485-3.43134-0.51013V14.06267   c0-2.62-2.12994-4.75-4.75-4.75h-7.91998c-0.3609-0.60492-0.48779-2.38-2.14001-2.38h-3.72998V6.64269   c0-2.45563-1.99182-4.36005-4.34998-4.36005c-2.40002,0-4.36005,1.96002-4.36005,4.36005v0.28998H17.1035   c-0.71997,0-1.35999,0.42999-1.62,1.09003l-0.52002,1.28998H7.03349c-2.62,0-4.75,2.13-4.75,4.75v47.66998   c0,2.61999,2.13,4.75,4.75,4.75h36.28998c1,0,1.93005-0.31,2.70001-0.83997c1.23999,0.65997,2.57001,1.02997,3.92999,1.04999   c0.53003,0,1.05005-0.04004,1.54004-0.14001c1-0.20001,2.01996-0.20001,3.01996,0c9.35742,1.909,16.26739-13.25622,9.47003-20.69   C60.23204,41.76348,55.85326,43.82842,53.49352,43.93267z M55.09349,38.99266c0.01001,0,0.01001,0,0.01001,0   c1.13-0.54999,2.38-0.71002,3.59003-0.46997c-1.16003,2.25995-3.70001,3.47998-6.19,3   C53.06353,40.41265,53.96349,39.53264,55.09349,38.99266z M43.32347,10.81267c1.79004,0,3.25,1.46002,3.25,3.25v29.33002   c-0.93994,0.13995-1.84998,0.45996-2.67999,0.94995V15.67266c0-1.51001-1.22998-2.75-2.75-2.75h-4.26996l-0.86005-2.10999H43.32347   z M19.48924,51.21721h20.02356c-0.21936,1.19873-0.25909,2.47711-0.12927,3.78546c0.21997,2.16998,0.90997,4.20001,1.92999,5.95001   c-0.06,0.01996-0.11005,0.01996-0.17004,0.01996h-32.69c-0.69995,0-1.25-0.54999-1.25-1.25V15.67266   c0-0.70001,0.55005-1.25,1.25-1.25h4.45001c-0.13,0.47998-0.03998,0.98999,0.23999,1.41003   c0.32001,0.47998,0.86005,0.76996,1.45001,0.76996h21.17999c0.58002,0,1.12-0.28998,1.45001-0.76996   c0.28003-0.42004,0.37-0.93005,0.23999-1.41003h3.67999c0.70001,0,1.25,0.54999,1.25,1.25v29.83002   c-0.81287,0.67725-1.94177,2.28943-2.52997,4.25c-0.00116,0.00366-0.00189,0.00745-0.00305,0.01111   c-0.07367-0.02423-0.1488-0.04657-0.23059-0.04657H19.48924c-0.41406,0-0.75,0.33594-0.75,0.75   S19.07518,51.21721,19.48924,51.21721z M22.32347,6.64269c0-1.57001,1.28003-2.86005,2.86005-2.86005   c1.59387,0,2.84998,1.29968,2.84998,2.86005v0.28998h-5.71002V6.64269z M14.50353,14.42266   c0.34497-0.85168,0.638-1.5752,0.88953-2.19611c-0.07819,0.19244,0.23621-0.58478,1.47046-3.63391   c0.03998-0.09998,0.13-0.15997,0.23999-0.15997c9.01068,0.03296,16.2367-0.2229,16.39002,0.15997   c1.36359,3.36371,2.39258,5.8855,2.37,5.83002l0.14001,0.34003c0.03998,0.10999,0,0.19-0.03003,0.22998   c-0.02002,0.03998-0.08997,0.10999-0.20001,0.10999H14.59349c-0.12,0-0.17999-0.07001-0.20996-0.10999   c-0.03003-0.03998-0.07001-0.12-0.02002-0.22998L14.50353,14.42266z M43.32347,64.98265H7.03349c-1.78998,0-3.25-1.45996-3.25-3.25   V14.06267c0-1.78998,1.46002-3.25,3.25-3.25h7.32001l-0.85999,2.10999H8.45348c-1.50995,0-2.75,1.23999-2.75,2.75v44.04999   c0,1.52002,1.24005,2.75,2.75,2.75h32.69c0.37,0,0.72003-0.07001,1.04004-0.20996c0.70996,0.95996,1.51996,1.78997,2.41998,2.46997   C44.21349,64.89268,43.77349,64.98265,43.32347,64.98265z M56.05352,65.19267c-1.54474,0-2.47186-0.58771-4.84003-0.10999   c-0.39996,0.06995-0.82996,0.10999-1.25,0.10999c-4.09741-0.04272-8.47321-4.27246-9.07996-10.34002   c-0.43488-4.29987,1.44714-9.16077,5.68994-9.94c0.35004-0.07001,0.72003-0.09998,1.09003-0.09998h0.07001   c0.12,0,0.22998,0,0.33997,0.01001c2.39655,0.06055,3.99384,1.2215,7.82001,0.26001   c2.52966-0.63263,5.11572-0.2561,6.98004,1.78998C68.14861,52.60192,63.81475,65.10509,56.05352,65.19267z"></path><path d="M15.39305,12.22655c0.11926-0.29352,1.15503-2.85083,1.27142-3.13849   C16.61144,9.21874,16.26995,10.06169,15.39305,12.22655z"></path></g></svg>