<svg height='100px' width='100px'  fill="#a6cd12" xmlns="http://www.w3.org/2000/svg" xmlns:xlink="http://www.w3.org/1999/xlink" version="1.1" x="0px" y="0px" viewBox="0 0 69 69" style="enable-background:new 0 0 69 69;" xml:space="preserve"><g><g><path d="M35.77442,15.48779H14.59443c-0.70996,0-1.20001-0.71997-0.92999-1.37c0.04183-0.10283,2.55183-6.27281,2.51001-6.16998    c0.14996-0.38,0.52002-0.63,0.92999-0.63h4.46997V6.27783c0-2,1.62006-3.61005,3.61005-3.61005    c2.00237,0,3.59998,1.63126,3.59998,3.61005v1.03998h4.47998c0.41003,0,0.77002,0.25,0.93005,0.63    c0.04169,0.10288,2.54167,6.27287,2.5,6.16998C36.96442,14.76782,36.48444,15.48779,35.77442,15.48779z"></path><g><path d="M41.14441,14.0578h-2.90997c0.10999,0.60999-0.02002,1.28003-0.38,1.82001     c-0.46997,0.70001-1.23999,1.10998-2.08002,1.10998H14.59443c-0.83997,0-1.62-0.41998-2.08002-1.10998     c-0.37-0.54999-0.5-1.20001-0.37994-1.82001H8.45441c-0.69995,0-1.25,0.54999-1.25,1.25v44.04999     c0,0.70001,0.55005,1.25,1.25,1.25h31.15002c-0.90002-1.73999-1.5-3.71997-1.71002-5.82996     c-0.13995-1.35004-0.09998-2.67999,0.10004-3.92999h-18.5c-0.42004,0-0.75-0.33002-0.75-0.75c0-0.41003,0.32996-0.75,0.75-0.75     h18.82001c0.76674-2.83709,2.36729-4.99378,4.07996-6.18005V15.3078C42.39441,14.60779,41.84443,14.0578,41.14441,14.0578z      M13.38446,56.2478c-2.30005,0-4.16003-1.85999-4.16003-4.15997c0-2.29004,1.85999-4.16003,4.16003-4.16003     c2.28998,0,4.15997,1.87,4.15997,4.16003C17.54444,54.38782,15.67444,56.2478,13.38446,56.2478z M13.38446,43.57782     c-2.30005,0-4.16003-1.87-4.16003-4.16003c0-2.29999,1.85999-4.15997,4.16003-4.15997c2.28998,0,4.15997,1.85999,4.15997,4.15997     C17.54444,41.70782,15.67444,43.57782,13.38446,43.57782z M13.38446,30.90784c-2.30005,0-4.16003-1.87006-4.16003-4.16003     c0-2.29999,1.85999-4.16998,4.16003-4.16998c2.28998,0,4.15997,1.87,4.15997,4.16998     C17.54444,29.03778,15.67444,30.90784,13.38446,30.90784z M19.49445,53.32782h8.97998c0.41003,0,0.75,0.33002,0.75,0.75     c0,0.40997-0.33997,0.75-0.75,0.75h-8.97998c-0.42004,0-0.75-0.34003-0.75-0.75     C18.74445,53.65784,19.07441,53.32782,19.49445,53.32782z M28.47443,42.15784h-8.97998c-0.42004,0-0.75-0.34003-0.75-0.75     c0-0.42004,0.32996-0.75,0.75-0.75h8.97998c0.41003,0,0.75,0.32996,0.75,0.75     C29.22443,41.81781,28.88446,42.15784,28.47443,42.15784z M39.63446,38.1778H19.49445c-0.42004,0-0.75-0.32996-0.75-0.75     c0-0.40997,0.32996-0.75,0.75-0.75h20.14001c0.40997,0,0.75,0.34003,0.75,0.75     C40.38446,37.84784,40.04444,38.1778,39.63446,38.1778z M18.74445,28.72778c0-0.40997,0.32996-0.75,0.75-0.75h8.97998     c0.41003,0,0.75,0.34003,0.75,0.75c0,0.42004-0.33997,0.75-0.75,0.75h-8.97998     C19.07441,29.47778,18.74445,29.14783,18.74445,28.72778z M39.63446,25.50781H19.49445c-0.42004,0-0.75-0.34003-0.75-0.75     c0-0.41998,0.32996-0.75,0.75-0.75h20.14001c0.40997,0,0.75,0.33002,0.75,0.75     C40.38446,25.16778,40.04444,25.50781,39.63446,25.50781z"></path><circle cx="13.38373" cy="52.08966" r="2.66113"></circle><circle cx="13.38373" cy="26.74298" r="2.66113"></circle><path d="M44.27442,66.01782c-0.31,0.07001-0.63,0.09998-0.95001,0.09998H7.03443c-2.62,0-4.75-2.13-4.75-4.75V13.69781     c0-2.62,2.13-4.75,4.75-4.75h7.10999l-1.46997,3.60999H8.45441c-1.51996,0-2.75,1.22998-2.75,2.75v44.04999     c0,1.52002,1.23004,2.75,2.75,2.75h32.01001C41.50446,63.69781,42.80445,65.03778,44.27442,66.01782z"></path><path d="M13.38373,36.7547c-1.46777,0-2.66113,1.19336-2.66113,2.66113s1.19336,2.66211,2.66113,2.66211     s2.66113-1.19434,2.66113-2.66211S14.85151,36.7547,13.38373,36.7547z"></path><path d="M48.07441,13.69781v27.77002c-0.99061-0.09918-2.74661,0.14542-4.17999,0.81995V15.3078     c0-1.52002-1.22998-2.75-2.75-2.75h-3.45996c-0.40002-0.97998-1-2.47998-1.47003-3.60999h7.10999     C45.94446,8.94781,48.07441,11.07782,48.07441,13.69781z"></path></g></g><path d="M54.50446,66.18781c-2.23344-0.4512-2.6437,0.14001-4.55005,0.14001c-5.39098-0.03597-9.93243-5.50342-10.56995-11.70001   c-0.40002-3.91998,0.81995-7.57001,3.25995-9.75c3.35528-2.95156,7.02051-1.69042,8.86005-1.41998   c-1.64001-2.48004-1.33002-5.10004,0.94-7.65002c0.27997-0.31,0.75-0.33997,1.06-0.06c0.31,0.27002,0.33997,0.75,0.06,1.06   c-1.15002,1.29004-1.66003,2.51001-1.57001,3.72003c0.65997-1.14001,1.64001-2.03003,2.77997-2.58002   c1.23004-0.59998,2.64001-0.79999,4.04999-0.53003c2.04107,0.41665-1.63058,5.44225-6.48999,4.46002   c0.25,0.56,0.63,1.12,1.15002,1.67999c2.42017-0.14229,6.79362-2.10764,10.5,1.94   C70.73384,52.87584,63.98495,67.966,54.50446,66.18781z"></path></g></svg>