<svg height='100px' width='100px'  fill="#a6cd12" xmlns="http://www.w3.org/2000/svg" xmlns:xlink="http://www.w3.org/1999/xlink" version="1.1" x="0px" y="0px" viewBox="0 0 100 100" enable-background="new 0 0 100 100" xml:space="preserve"><g><g><g><path d="M38.492,16.104c0,0.827,0.673,1.5,1.5,1.5s1.5-0.673,1.5-1.5v-6.5c0-0.827-0.673-1.5-1.5-1.5s-1.5,0.673-1.5,1.5V16.104z     "></path></g><g><path d="M19.494,16.104c0,0.827,0.673,1.5,1.5,1.5s1.5-0.673,1.5-1.5v-6.5c0-0.827-0.673-1.5-1.5-1.5s-1.5,0.673-1.5,1.5V16.104z     "></path></g><g><path d="M11.117,14.052c-1.379,0-2.5,1.121-2.5,2.5v8.067h62.75v-8.067c0-1.379-1.121-2.5-2.5-2.5H63.49v2.053     c0,2.481-2.019,4.5-4.5,4.5s-4.5-2.019-4.5-4.5v-2.053h-9.998v2.053c0,2.481-2.019,4.5-4.5,4.5s-4.5-2.019-4.5-4.5v-2.053h-9.998     v2.053c0,2.481-2.019,4.5-4.5,4.5s-4.5-2.019-4.5-4.5v-2.053H11.117z"></path></g><g><rect x="30.908" y="36.631" width="5.372" height="5.372"></rect></g><g><rect x="56.193" y="36.631" width="5.372" height="5.372"></rect></g><g><rect x="43.397" y="36.631" width="5.372" height="5.372"></rect></g><g><path d="M57.49,16.104c0,0.827,0.673,1.5,1.5,1.5s1.5-0.673,1.5-1.5v-6.5c0-0.827-0.673-1.5-1.5-1.5s-1.5,0.673-1.5,1.5V16.104z"></path></g><g><path d="M90.476,63.414l3.409-0.001l0.144-1.104c0.357-2.735-0.267-5.32-1.669-6.917c-0.613-0.699-1.674-1.533-3.237-1.533     c-1.562,0-2.622,0.833-3.235,1.531c-1.402,1.597-2.027,4.184-1.671,6.921l2.941,22.595c0.522,4.002,1.355,6.759,1.965,8.108     c0.609-1.35,1.443-4.106,1.966-8.109l0.301-2.314h-0.913c-0.828,0-1.5-0.672-1.5-1.5s0.672-1.5,1.5-1.5h1.304l0.7-5.382h-2.004     c-0.828,0-1.5-0.672-1.5-1.5s0.672-1.5,1.5-1.5h2.395l0.624-4.795l-3.019,0.001c-0.828,0-1.5-0.671-1.5-1.5     C88.976,64.086,89.646,63.414,90.476,63.414z"></path></g><g><path d="M83.163,77.462l-1.922-14.765c-0.142-1.087-0.148-2.146-0.056-3.164c-1.205-1.84-3.255-2.975-5.47-2.975     c-0.195,0-0.389,0.014-0.58,0.029c-0.622,0.044-1.216-0.293-1.479-0.861c-1.354-2.905-4.292-4.782-7.484-4.782     s-6.131,1.877-7.486,4.782c-0.266,0.569-0.876,0.904-1.479,0.861c-0.191-0.016-0.383-0.028-0.579-0.028h-0.001     c-0.556,0-1.099,0.076-1.623,0.21c-0.004,0-0.007,0.001-0.011,0.002c-1.109,0.284-2.13,0.852-2.966,1.678     c-0.019,0.017-0.034,0.037-0.054,0.054c-1.221,1.234-1.894,2.866-1.894,4.604c0,0.353,0.033,0.714,0.103,1.104     c0.118,0.671-0.23,1.337-0.848,1.622c-2.28,1.055-3.753,3.351-3.752,5.85c0,3.555,2.893,6.447,6.447,6.447     c0.127,0,0.25-0.019,0.375-0.026c0.006,0,0.012-0.004,0.018-0.004c1.407-0.086,2.708-0.603,3.761-1.495     c0.001-0.001,0.003-0.001,0.004-0.002c0.641-0.544,1.185-1.213,1.583-1.994c0.222-0.433,0.639-0.731,1.12-0.802     c0.484-0.073,0.967,0.099,1.302,0.449c1.072,1.126,2.398,1.897,3.851,2.284c0.008,0.002,0.017,0.002,0.025,0.004     c0.357,0.093,0.707,0.162,1.054,0.209c0.005,0.001,0.01,0.002,0.015,0.003c0.697,0.093,1.379,0.093,2.075-0.001h0.001     c0.349-0.047,0.701-0.117,1.061-0.211c0.01-0.003,0.021-0.002,0.031-0.005c1.45-0.387,2.776-1.159,3.851-2.284     c0.336-0.352,0.822-0.52,1.302-0.449c0.481,0.07,0.898,0.37,1.119,0.803c0.399,0.782,0.943,1.453,1.585,1.997     c1.054,0.893,2.353,1.408,3.758,1.494c0.008,0.001,0.015,0.005,0.021,0.005c0.125,0.008,0.248,0.026,0.374,0.026     C81.311,78.13,82.28,77.897,83.163,77.462z"></path></g><g><path d="M59.414,77.57c-0.047,0.059-0.102,0.11-0.149,0.168l0.563,0.563h0.719C60.158,78.078,59.775,77.844,59.414,77.57z"></path></g><g><path d="M70.335,92.29v-4.17c0-0.397,0.158-0.779,0.439-1.061l6.449-6.449c-0.661-0.228-1.292-0.528-1.883-0.896l-5.629,5.629     c-0.43,0.43-1.076,0.558-1.635,0.325c-0.561-0.232-0.926-0.779-0.926-1.386v-4.501c-0.315,0.027-0.633,0.042-0.953,0.043     c-0.022,0-0.046-0.001-0.069-0.001c-0.316-0.001-0.63-0.016-0.94-0.042v4.501c0,0.606-0.365,1.153-0.926,1.386     c-0.56,0.232-1.204,0.104-1.635-0.325l-5.629-5.628c-0.591,0.366-1.222,0.667-1.883,0.895l6.448,6.449     c0.281,0.281,0.439,0.663,0.439,1.061v4.17H70.335z"></path></g><g><path d="M72.512,78.302l0.355-0.355v-0.337c-0.344,0.256-0.705,0.48-1.073,0.692H72.512z"></path></g><g><path d="M38.892,92.335C38.893,92.335,38.893,92.335,38.892,92.335c0.663-0.001,1.279-0.312,1.691-0.853     c0.283-0.372,0.725-0.591,1.192-0.591h0.001c0.467,0,0.908,0.218,1.191,0.589c0.415,0.542,1.031,0.854,1.691,0.854h0.001     c0.57,0,1.106-0.222,1.509-0.625c0.404-0.403,0.626-0.939,0.626-1.511c0-1.177-0.959-2.134-2.138-2.135     c-0.018,0.003-0.106,0.021-0.125,0.022c-0.419,0.041-0.844-0.093-1.159-0.378c-0.315-0.284-0.496-0.688-0.496-1.113l-0.002-5.938     c-0.364,0.048-0.73,0.081-1.099,0.081c-0.371,0-0.738-0.031-1.101-0.08v5.934c0,0.414-0.171,0.81-0.473,1.093     c-0.302,0.284-0.71,0.43-1.121,0.404c-0.074-0.005-0.147-0.014-0.222-0.023h-0.001c-1.143,0-2.101,0.959-2.103,2.136     c0,0.568,0.223,1.105,0.627,1.51C37.787,92.113,38.322,92.335,38.892,92.335z"></path></g><g><path d="M35.728,49.434h-4.819v5.371H31.9c0.409-0.929,0.881-1.806,1.418-2.614C34.041,51.102,34.855,50.19,35.728,49.434z"></path></g><g><rect x="18.419" y="62.235" width="5.371" height="5.372"></rect></g><g><path d="M39.793,58.258h8.617c0.263-0.442,0.556-0.869,0.891-1.269c-1.561-4.26-4.452-6.967-7.522-6.967     c-0.001,0-0.001,0-0.002,0c-2.204,0-4.32,1.359-5.959,3.827c-1.315,1.982-2.19,4.47-2.55,7.187c0,0.001,0,0.001,0,0.002     c-0.123,0.924-0.187,1.874-0.187,2.841c0,7.511,3.982,13.857,8.695,13.858c0.867,0,1.711-0.228,2.528-0.635     c-1.082-1.536-1.723-3.403-1.723-5.421c0-0.746,0.101-1.477,0.271-2.186h-3.061c-0.828,0-1.5-0.672-1.5-1.5s0.672-1.5,1.5-1.5     h4.373c0.754-1.14,1.738-2.13,2.929-2.861c-0.011-0.178-0.016-0.353-0.016-0.528c0-0.628,0.062-1.246,0.179-1.849h-7.465     c-0.828,0-1.5-0.672-1.5-1.5S38.965,58.258,39.793,58.258z"></path></g><g><path d="M11.117,76.802h23.162c-1.381-1.667-2.488-3.785-3.22-6.194h-1.651c-0.828,0-1.5-0.672-1.5-1.5v-8.372     c0-0.828,0.672-1.5,1.5-1.5h1.121c0.095-0.485,0.207-0.961,0.331-1.431h-1.452c-0.828,0-1.5-0.672-1.5-1.5v-8.371     c0-0.828,0.672-1.5,1.5-1.5h8.372c0.653,0,1.204,0.421,1.409,1.004c0.479-0.152,0.965-0.269,1.46-0.335     c0.27-0.403,0.728-0.669,1.248-0.669h8.372c0.828,0,1.5,0.672,1.5,1.5v6.961c0.456-0.271,0.931-0.502,1.424-0.691v-6.27     c0-0.828,0.672-1.5,1.5-1.5h8.372c0.828,0,1.5,0.672,1.5,1.5v0.135c0.528-0.077,1.063-0.124,1.606-0.124     c1.844,0,3.614,0.477,5.195,1.306V27.619H8.617v46.683C8.617,75.681,9.738,76.802,11.117,76.802z M53.193,35.131     c0-0.828,0.672-1.5,1.5-1.5h8.372c0.828,0,1.5,0.672,1.5,1.5v8.372c0,0.828-0.672,1.5-1.5,1.5h-8.372c-0.828,0-1.5-0.672-1.5-1.5     V35.131z M40.397,35.131c0-0.828,0.672-1.5,1.5-1.5h8.372c0.828,0,1.5,0.672,1.5,1.5v8.372c0,0.828-0.672,1.5-1.5,1.5h-8.372     c-0.828,0-1.5-0.672-1.5-1.5V35.131z M27.908,35.131c0-0.828,0.672-1.5,1.5-1.5h8.372c0.828,0,1.5,0.672,1.5,1.5v8.372     c0,0.828-0.672,1.5-1.5,1.5h-8.372c-0.828,0-1.5-0.672-1.5-1.5V35.131z M15.419,35.131c0-0.828,0.672-1.5,1.5-1.5h8.371     c0.828,0,1.5,0.672,1.5,1.5v8.372c0,0.828-0.672,1.5-1.5,1.5h-8.371c-0.828,0-1.5-0.672-1.5-1.5V35.131z M15.419,47.934     c0-0.828,0.672-1.5,1.5-1.5h8.371c0.828,0,1.5,0.672,1.5,1.5v8.371c0,0.828-0.672,1.5-1.5,1.5h-8.371c-0.828,0-1.5-0.672-1.5-1.5     V47.934z M15.419,60.735c0-0.828,0.672-1.5,1.5-1.5h8.371c0.828,0,1.5,0.672,1.5,1.5v8.372c0,0.828-0.672,1.5-1.5,1.5h-8.371     c-0.828,0-1.5-0.672-1.5-1.5V60.735z"></path></g><g><rect x="18.419" y="49.434" width="5.371" height="5.371"></rect></g><g><path d="M56.436,53.562c1.012-1.74,2.465-3.153,4.171-4.128h-4.413v4.145C56.274,53.574,56.354,53.563,56.436,53.562z"></path></g><g><rect x="18.419" y="36.631" width="5.371" height="5.372"></rect></g><g><path d="M47.806,49.434c0.331,0.285,0.654,0.587,0.964,0.917v-0.917H47.806z"></path></g></g></g></svg>